<?xml version="1.0" encoding="utf-8"?>
<!DOCTYPE svg PUBLIC "-//W3C//DTD SVG 1.1//EN" "http://www.w3.org/Graphics/SVG/1.1/DTD/svg11.dtd">
<svg xmlns="http://www.w3.org/2000/svg" xmlns:xlink="http://www.w3.org/1999/xlink" version="1.1" id="Layer_1" x="0px" y="0px" width="64px" height="64px" viewBox="0 0 64 64" enable-background="new 0 0 64 64" xml:space="preserve">
<g>
	<path fill="#232323" d="M32.029,55.014c-0.837,0-1.516-0.679-1.516-1.516V37.753c0-0.837,0.679-1.516,1.516-1.516   s1.516,0.679,1.516,1.516v15.746C33.545,54.336,32.866,55.014,32.029,55.014z"/>
	<path fill="#232323" d="M32.029,28.058c-0.837,0-1.516-0.679-1.516-1.516v-15.7c0-0.837,0.679-1.516,1.516-1.516   s1.516,0.679,1.516,1.516v15.7C33.545,27.379,32.866,28.058,32.029,28.058z"/>
	<path fill="#232323" d="M27.542,30.969c-0.268,0-0.539-0.071-0.784-0.22l-13.756-8.334c-0.716-0.434-0.945-1.366-0.512-2.082   c0.435-0.716,1.367-0.945,2.082-0.511l13.757,8.334c0.716,0.434,0.944,1.366,0.511,2.082   C28.555,30.708,28.054,30.969,27.542,30.969z"/>
	<path fill="#232323" d="M50.269,44.738c-0.268,0-0.539-0.071-0.785-0.22l-13.31-8.064c-0.716-0.434-0.944-1.366-0.511-2.082   c0.435-0.716,1.367-0.945,2.082-0.511l13.31,8.064c0.716,0.434,0.944,1.366,0.511,2.082C51.282,44.477,50.782,44.738,50.269,44.738   z"/>
	<path fill="#232323" d="M13.846,44.833c-0.51,0-1.008-0.257-1.294-0.724c-0.437-0.714-0.213-1.647,0.5-2.085l13.626-8.353   c0.712-0.437,1.647-0.214,2.085,0.5c0.437,0.714,0.213,1.647-0.5,2.085l-13.626,8.353C14.39,44.76,14.117,44.833,13.846,44.833z"/>
	<path fill="#232323" d="M37.001,30.639c-0.51,0-1.007-0.257-1.294-0.724c-0.437-0.714-0.213-1.647,0.5-2.085l13.213-8.1   c0.712-0.437,1.647-0.214,2.085,0.5c0.437,0.714,0.213,1.647-0.5,2.085l-13.213,8.1C37.545,30.567,37.272,30.639,37.001,30.639z"/>
	<g>
		<path fill="#232323" d="M42.399,27.515c-0.12,0-0.242-0.014-0.364-0.044c-0.812-0.2-1.309-1.022-1.109-1.834l2.368-9.607    c0.2-0.813,1.021-1.311,1.835-1.109c0.812,0.2,1.309,1.022,1.109,1.834l-2.368,9.607C43.699,27.053,43.079,27.515,42.399,27.515z"/>
		<path fill="#232323" d="M52.006,29.884c-0.12,0-0.242-0.014-0.364-0.044l-9.607-2.368c-0.812-0.2-1.309-1.022-1.109-1.834    c0.201-0.813,1.021-1.311,1.835-1.109l9.607,2.368c0.812,0.2,1.309,1.022,1.109,1.834C53.306,29.421,52.687,29.884,52.006,29.884z    "/>
	</g>
	<g>
		<path fill="#232323" d="M32.276,20.341c-0.369,0-0.741-0.135-1.033-0.407l-7.24-6.745c-0.612-0.57-0.647-1.53-0.076-2.142    c0.57-0.612,1.529-0.647,2.142-0.076l7.24,6.745c0.612,0.57,0.647,1.53,0.076,2.142C33.087,20.179,32.682,20.341,32.276,20.341z"/>
		<path fill="#232323" d="M32.276,20.341c-0.369,0-0.741-0.135-1.033-0.407c-0.612-0.57-0.647-1.53-0.076-2.142l6.745-7.24    c0.57-0.612,1.529-0.647,2.142-0.076c0.612,0.57,0.647,1.53,0.076,2.142l-6.745,7.24C33.087,20.179,32.682,20.341,32.276,20.341z"/>
	</g>
	<path fill="#232323" d="M32.277,38.833c-3.674,0-6.663-2.989-6.663-6.663s2.989-6.663,6.663-6.663s6.663,2.989,6.663,6.663   S35.951,38.833,32.277,38.833z M32.277,28.539c-2.002,0-3.631,1.629-3.631,3.631c0,2.002,1.629,3.631,3.631,3.631   s3.631-1.629,3.631-3.631C35.908,30.168,34.279,28.539,32.277,28.539z"/>
	<path fill="#232323" d="M52.618,23.603c-2.162,0-3.922-1.759-3.922-3.922s1.759-3.922,3.922-3.922c2.162,0,3.922,1.759,3.922,3.922   S54.781,23.603,52.618,23.603z M52.618,18.791c-0.491,0-0.89,0.399-0.89,0.89c0,0.491,0.399,0.89,0.89,0.89   c0.491,0,0.891-0.399,0.891-0.89C53.509,19.19,53.109,18.791,52.618,18.791z"/>
	<path fill="#232323" d="M32.029,12.357c-2.162,0-3.922-1.759-3.922-3.922s1.76-3.922,3.922-3.922s3.922,1.759,3.922,3.922   S34.191,12.357,32.029,12.357z M32.029,7.546c-0.491,0-0.891,0.399-0.891,0.89s0.4,0.89,0.891,0.89c0.491,0,0.89-0.399,0.89-0.89   S32.52,7.546,32.029,7.546z"/>
	<path fill="#232323" d="M11.877,23.603c-2.162,0-3.922-1.759-3.922-3.922s1.759-3.922,3.922-3.922s3.922,1.759,3.922,3.922   S14.039,23.603,11.877,23.603z M11.877,18.791c-0.491,0-0.89,0.399-0.89,0.89c0,0.491,0.399,0.89,0.89,0.89   c0.491,0,0.891-0.399,0.891-0.89C12.767,19.19,12.368,18.791,11.877,18.791z"/>
	<path fill="#232323" d="M11.381,48.056c-2.162,0-3.922-1.759-3.922-3.922c0-2.162,1.759-3.922,3.922-3.922s3.922,1.759,3.922,3.922   C15.303,46.296,13.544,48.056,11.381,48.056z M11.381,43.244c-0.491,0-0.89,0.399-0.89,0.89c0,0.491,0.399,0.89,0.89,0.89   c0.491,0,0.89-0.399,0.89-0.89C12.271,43.643,11.872,43.244,11.381,43.244z"/>
	<path fill="#232323" d="M32.029,60.834c-2.162,0-3.922-1.759-3.922-3.922c0-2.162,1.76-3.922,3.922-3.922s3.922,1.759,3.922,3.922   C35.951,59.074,34.191,60.834,32.029,60.834z M32.029,56.022c-0.491,0-0.891,0.399-0.891,0.89c0,0.491,0.4,0.89,0.891,0.89   c0.491,0,0.89-0.399,0.89-0.89C32.919,56.421,32.52,56.022,32.029,56.022z"/>
	<path fill="#232323" d="M52.618,48.713c-2.162,0-3.922-1.759-3.922-3.922c0-2.162,1.759-3.922,3.922-3.922   c2.162,0,3.922,1.759,3.922,3.922C56.54,46.953,54.781,48.713,52.618,48.713z M52.618,43.901c-0.491,0-0.89,0.399-0.89,0.89   c0,0.491,0.399,0.89,0.89,0.89c0.491,0,0.891-0.399,0.891-0.89C53.509,44.3,53.109,43.901,52.618,43.901z"/>
	<g>
		<path fill="#232323" d="M21.483,27.515c-0.681,0-1.3-0.462-1.471-1.153l-2.368-9.607c-0.2-0.813,0.297-1.634,1.109-1.834    c0.812-0.202,1.634,0.296,1.835,1.109l2.368,9.607c0.2,0.813-0.297,1.634-1.109,1.834C21.725,27.501,21.603,27.515,21.483,27.515z    "/>
		<path fill="#232323" d="M11.876,29.884c-0.681,0-1.3-0.462-1.471-1.153c-0.2-0.813,0.297-1.634,1.109-1.834l9.607-2.368    c0.814-0.202,1.634,0.296,1.835,1.109c0.2,0.813-0.297,1.634-1.109,1.834l-9.607,2.368C12.118,29.869,11.996,29.884,11.876,29.884    z"/>
	</g>
	<g>
		<path fill="#232323" d="M44.765,49.51c-0.681,0-1.3-0.462-1.471-1.153l-2.368-9.607c-0.2-0.813,0.297-1.634,1.109-1.834    c0.812-0.202,1.634,0.296,1.835,1.109l2.368,9.607c0.2,0.813-0.297,1.634-1.109,1.834C45.007,49.496,44.885,49.51,44.765,49.51z"/>
		<path fill="#232323" d="M42.396,39.903c-0.681,0-1.3-0.462-1.471-1.153c-0.2-0.813,0.296-1.634,1.109-1.835l9.607-2.369    c0.812-0.201,1.634,0.295,1.835,1.109c0.2,0.813-0.296,1.634-1.109,1.835l-9.607,2.369C42.638,39.888,42.516,39.903,42.396,39.903    z"/>
	</g>
	<g>
		<path fill="#232323" d="M19.553,49.51c-0.12,0-0.242-0.014-0.364-0.044c-0.812-0.2-1.309-1.022-1.109-1.834l2.368-9.607    c0.201-0.813,1.023-1.311,1.835-1.109c0.812,0.2,1.309,1.022,1.109,1.834l-2.368,9.607C20.854,49.048,20.234,49.51,19.553,49.51z"/>
		<path fill="#232323" d="M21.922,39.903c-0.12,0-0.242-0.014-0.364-0.044l-9.607-2.369c-0.813-0.2-1.309-1.022-1.109-1.835    c0.201-0.813,1.023-1.31,1.835-1.109l9.607,2.369c0.813,0.2,1.309,1.022,1.109,1.835C23.222,39.44,22.603,39.903,21.922,39.903z"/>
	</g>
	<g>
		<path fill="#232323" d="M25.037,54.24c-0.406,0-0.811-0.162-1.11-0.483c-0.571-0.613-0.536-1.572,0.076-2.142l7.24-6.745    c0.613-0.571,1.572-0.536,2.142,0.076c0.571,0.613,0.536,1.572-0.076,2.142l-7.24,6.745C25.778,54.105,25.406,54.24,25.037,54.24z    "/>
		<path fill="#232323" d="M39.022,54.736c-0.406,0-0.811-0.162-1.11-0.483l-6.745-7.24c-0.571-0.613-0.536-1.572,0.076-2.142    c0.613-0.571,1.572-0.536,2.142,0.076l6.745,7.24c0.571,0.613,0.536,1.572-0.076,2.142C39.762,54.601,39.391,54.736,39.022,54.736    z"/>
	</g>
	<ellipse fill="#FFEEB8" cx="32.836" cy="32.17" rx="3.088" ry="3.44"/>
</g>

	<metadata>
		<rdf:RDF xmlns:rdf="http://www.w3.org/1999/02/22-rdf-syntax-ns#" xmlns:rdfs="http://www.w3.org/2000/01/rdf-schema#" xmlns:dc="http://purl.org/dc/elements/1.1/">
			<rdf:Description about="https://iconscout.com/legal#licenses" dc:title="christmas icon set_saltandsugar-09" dc:description="christmas icon set_saltandsugar-09" dc:publisher="Iconscout" dc:date="2016-12-21" dc:format="image/svg+xml" dc:language="en">
				<dc:creator>
					<rdf:Bag>
						<rdf:li>Salt And Sugar Design</rdf:li>
					</rdf:Bag>
				</dc:creator>
			</rdf:Description>
		</rdf:RDF>
    </metadata></svg>
