<svg xmlns="http://www.w3.org/2000/svg" width="48" height="48" viewBox="0 0 48 48"><path fill-rule="evenodd" d="M 24 0 A 23.999998 23.999998 0 0 0 0 24 A 23.999998 23.999998 0 0 0 24 48 A 23.999998 23.999998 0 0 0 48 24 A 23.999998 23.999998 0 0 0 24 0 z M 29.5 11.998047 A 6.4999887 6.4999887 0 0 1 36 18.498047 A 6.4999887 6.4999887 0 0 1 35.714844 20.394531 C 37.064754 21.035731 38 22.399047 38 23.998047 C 38 26.214047 36.216 27.998047 34 27.998047 L 14 27.998047 C 11.784 27.998047 10 26.214047 10 23.998047 C 10 21.782047 11.784 19.998047 14 19.998047 L 14.050781 19.998047 A 2.4999997 2.4999997 0 0 1 16.5 17.998047 A 2.4999997 2.4999997 0 0 1 18.041016 18.533203 A 3.9999995 3.9999995 0 0 1 18 17.998047 A 3.9999995 3.9999995 0 0 1 22 13.998047 A 3.9999995 3.9999995 0 0 1 24.242188 14.6875 A 6.4999887 6.4999887 0 0 1 29.5 11.998047 z M 21.992188 28.476562 A 0.50005 0.50005 0 0 1 22.5 28.984375 L 22.5 35.984375 A 0.50005 0.50005 0 1 1 21.5 35.984375 L 21.5 28.984375 A 0.50005 0.50005 0 0 1 21.992188 28.476562 z M 14.992188 28.984375 A 0.50005 0.50005 0 0 1 15.5 29.492188 L 15.5 36.492188 A 0.50005 0.50005 0 1 1 14.5 36.492188 L 14.5 29.492188 A 0.50005 0.50005 0 0 1 14.992188 28.984375 z M 28.992188 28.984375 A 0.50005 0.50005 0 0 1 29.5 29.492188 L 29.5 36.492188 A 0.50005 0.50005 0 1 1 28.5 36.492188 L 28.5 29.492188 A 0.50005 0.50005 0 0 1 28.992188 28.984375 z M 18.492188 29.316406 A 0.50004976 0.50004976 0 0 1 19 29.822266 L 19 32.984375 A 0.50004976 0.50004976 0 1 1 18 32.984375 L 18 29.822266 A 0.50004976 0.50004976 0 0 1 18.492188 29.316406 z M 32.492188 29.316406 A 0.50004976 0.50004976 0 0 1 33 29.822266 L 33 32.984375 A 0.50004976 0.50004976 0 1 1 32 32.984375 L 32 29.822266 A 0.50004976 0.50004976 0 0 1 32.492188 29.316406 z M 25.492188 29.4375 A 0.50004976 0.50004976 0 0 1 26 29.943359 L 26 33.863281 A 0.50004976 0.50004976 0 1 1 25 33.863281 L 25 29.943359 A 0.50004976 0.50004976 0 0 1 25.492188 29.4375 z "/></svg>