<svg xmlns="http://www.w3.org/2000/svg" width="26" height="26" viewBox="0 0 26 26"><path d="M 13 0 C 5.8202983 0 -5.994861e-018 5.8202983 0 13 C 0 20.179702 5.8202983 26 13 26 C 20.179702 26 26 20.179702 26 13 L 25.5625 9.625 C 24.039641 3.9416145 18.883874 -2.2816191e-017 13 0 z M 13.0625 6 C 13.899074 5.99 14.707323 6.24265 15.5 6.53125 L 15.09375 7.4375 C 14.457019 7.2133 13.803249 7 13.125 7 C 9.8215733 7 7.125 9.6964 7.125 13 C 7.125 16.3036 9.821359 19 13.125 19 C 16.223449 19 19.09375 16.6233 19.09375 13.5 L 19.09375 13 L 18.59375 13 L 15.125 13 L 15.125 12 L 19.84375 12 C 20.058862 14.0952 19.7728 15.74635 19 16.96875 C 18.168402 18.28405 16.835726 19.2106 15 19.75 C 11.298569 20.8376 7.4098174 18.6008 6.375 14.875 C 5.340211 11.1494 7.5242146 7.2848 11.25 6.25 C 11.837876 6.0863 12.453865 6.0094 13.0625 6 z " color="#000" overflow="visible" style="marker:none"/></svg>