<svg xmlns="http://www.w3.org/2000/svg" width="48" height="48" viewBox="0 0 48 48"><g transform="translate(-590.22 -135.376)"><circle cx="614.22" cy="159.376" r="24" fill="#239fdb" fill-rule="evenodd"/><path fill="#0b5ecd" d="M 29.5 11.998047 A 6.4999887 6.4999887 0 0 0 24.242188 14.6875 A 3.9999995 3.9999995 0 0 0 22 13.998047 A 3.9999995 3.9999995 0 0 0 18 17.998047 A 3.9999995 3.9999995 0 0 0 18.041016 18.533203 A 2.4999997 2.4999997 0 0 0 16.5 17.998047 A 2.4999997 2.4999997 0 0 0 14.050781 19.998047 L 14 19.998047 C 11.784 19.998047 10 21.782047 10 23.998047 C 10 26.214047 11.784 27.998047 14 27.998047 L 14.986328 28.984375 A 0.50005 0.50005 0 0 0 14.5 29.492188 L 14.5 36.492188 A 0.50005 0.50005 0 0 0 15.007812 37 L 25.919922 47.912109 A 23.999998 23.999998 0 0 0 46.878906 31.228516 L 36.835938 21.185547 C 36.808177 21.157787 36.774661 21.136316 36.746094 21.109375 C 36.639047 21.008419 36.525931 20.915012 36.408203 20.826172 C 36.36141 20.790853 36.317899 20.752048 36.269531 20.71875 C 36.093635 20.597673 35.909557 20.487019 35.714844 20.394531 A 6.4999887 6.4999887 0 0 0 36 18.498047 A 6.4999887 6.4999887 0 0 0 29.5 11.998047 z " transform="translate(590.22 135.376)"/><path fill="#fff" d="m 619.72011,147.37444 a 6.4999887,6.4999887 0 0 0 -5.25781,2.68945 3.9999995,3.9999995 0 0 0 -2.24219,-0.68945 3.9999995,3.9999995 0 0 0 -4,4 3.9999995,3.9999995 0 0 0 0.041,0.53516 2.4999997,2.4999997 0 0 0 -1.54102,-0.53516 2.4999997,2.4999997 0 0 0 -2.44922,2 l -0.0508,0 c -2.216,0 -4,1.784 -4,4 0,2.216 1.784,4 4,4 l 20,0 c 2.216,0 4,-1.784 4,-4 0,-1.599 -0.93525,-2.96232 -2.28516,-3.60352 a 6.4999887,6.4999887 0 0 0 0.28516,-1.89648 6.4999887,6.4999887 0 0 0 -6.5,-6.5 z m -7.50781,16.47852 a 0.50005,0.50005 0 0 0 -0.49219,0.50781 l 0,7 a 0.50005,0.50005 0 1 0 1,0 l 0,-7 a 0.50005,0.50005 0 0 0 -0.50781,-0.50781 z m -7,0.50781 a 0.50005,0.50005 0 0 0 -0.49219,0.50781 l 0,7 a 0.50005,0.50005 0 1 0 1,0 l 0,-7 a 0.50005,0.50005 0 0 0 -0.50781,-0.50781 z m 14,0 a 0.50005,0.50005 0 0 0 -0.49219,0.50781 l 0,7 a 0.50005,0.50005 0 1 0 1,0 l 0,-7 a 0.50005,0.50005 0 0 0 -0.50781,-0.50781 z m -10.5,0.33203 a 0.50004976,0.50004976 0 0 0 -0.49219,0.50586 l 0,3.16211 a 0.50004976,0.50004976 0 1 0 1,0 l 0,-3.16211 a 0.50004976,0.50004976 0 0 0 -0.50781,-0.50586 z m 14,0 a 0.50004976,0.50004976 0 0 0 -0.49219,0.50586 l 0,3.16211 a 0.50004976,0.50004976 0 1 0 1,0 l 0,-3.16211 a 0.50004976,0.50004976 0 0 0 -0.50781,-0.50586 z m -7,0.12109 a 0.50004976,0.50004976 0 0 0 -0.49219,0.50586 l 0,3.91992 a 0.50004976,0.50004976 0 1 0 1,0 l 0,-3.91992 a 0.50004976,0.50004976 0 0 0 -0.50781,-0.50586 z"/></g></svg>