<svg xmlns="http://www.w3.org/2000/svg" width="48" height="48" viewBox="0 0 48 48"><path d="M 24 0 C 10.75109 0 0 10.75109 0 24 C 0 37.24891 10.75109 48 24 48 C 37.24891 48 48 37.24891 48 24 C 48 10.75109 37.24891 0 24 0 z M 24 1 C 36.70847 1 47 11.29153 47 24 C 47 36.70847 36.70847 47 24 47 C 11.29153 47 1 36.70847 1 24 C 1 11.29153 11.29153 1 24 1 z M 29.5 11.998047 A 6.4999887 6.4999887 0 0 0 24.242188 14.6875 A 3.9999995 3.9999995 0 0 0 22 13.998047 A 3.9999995 3.9999995 0 0 0 18 17.998047 A 3.9999995 3.9999995 0 0 0 18.041016 18.533203 A 2.4999997 2.4999997 0 0 0 16.5 17.998047 A 2.4999997 2.4999997 0 0 0 14.050781 19.998047 L 14 19.998047 C 11.784 19.998047 10 21.782047 10 23.998047 C 10 26.214047 11.784 27.998047 14 27.998047 L 34 27.998047 C 36.216 27.998047 38 26.214047 38 23.998047 C 38 22.399047 37.064754 21.035731 35.714844 20.394531 A 6.4999887 6.4999887 0 0 0 36 18.498047 A 6.4999887 6.4999887 0 0 0 29.5 11.998047 z M 21.992188 28.476562 A 0.50005 0.50005 0 0 0 21.5 28.984375 L 21.5 35.984375 A 0.50005 0.50005 0 1 0 22.5 35.984375 L 22.5 28.984375 A 0.50005 0.50005 0 0 0 21.992188 28.476562 z M 14.992188 28.984375 A 0.50005 0.50005 0 0 0 14.5 29.492188 L 14.5 36.492188 A 0.50005 0.50005 0 1 0 15.5 36.492188 L 15.5 29.492188 A 0.50005 0.50005 0 0 0 14.992188 28.984375 z M 28.992188 28.984375 A 0.50005 0.50005 0 0 0 28.5 29.492188 L 28.5 36.492188 A 0.50005 0.50005 0 1 0 29.5 36.492188 L 29.5 29.492188 A 0.50005 0.50005 0 0 0 28.992188 28.984375 z M 18.492188 29.316406 A 0.50004976 0.50004976 0 0 0 18 29.822266 L 18 32.984375 A 0.50004976 0.50004976 0 1 0 19 32.984375 L 19 29.822266 A 0.50004976 0.50004976 0 0 0 18.492188 29.316406 z M 32.492188 29.316406 A 0.50004976 0.50004976 0 0 0 32 29.822266 L 32 32.984375 A 0.50004976 0.50004976 0 1 0 33 32.984375 L 33 29.822266 A 0.50004976 0.50004976 0 0 0 32.492188 29.316406 z M 25.492188 29.4375 A 0.50004976 0.50004976 0 0 0 25 29.943359 L 25 33.863281 A 0.50004976 0.50004976 0 1 0 26 33.863281 L 26 29.943359 A 0.50004976 0.50004976 0 0 0 25.492188 29.4375 z "/></svg>